<svg width="900" height="900" xmlns="http://www.w3.org/2000/svg">

 <g>
  <title>background</title>
  <rect height="402" width="582" y="-1" x="-1" fill="none" id="canvas_background"/>
 </g>
 <g>
  <title>Layer 1</title>
  <path d="m449,36.973801c-2.863007,0.379398 -5.574005,2.5919 -8,4.0154c-5.316986,3.120399 -10.640991,6.243298 -16,9.291698c-19.744995,11.232201 -39.453003,22.550003 -59,34.1157c-62.911011,37.223404 -126.955994,72.565407 -190,109.5924c-20.231995,11.882996 -40.621002,23.528 -61,35.160995l-15.999199,9.271011c-2.1968,1.268997 -5.2584,2.535995 -6.3974,4.968994c-2.456902,5.246002 -0.603401,14.878006 -0.603401,20.610001l0,48l0,172l0,127l0,33c0,3.744995 -1.206596,10.127991 1.027802,13.366028c2.591202,3.754944 9.132202,5.961975 12.972198,8.237c11.254997,6.669983 22.626007,13.207947 34,19.677979c38.442993,21.869019 76.951004,43.775024 115,66.322021c47.356995,28.063965 95.707001,54.431946 143,82.597961c12.565002,7.483032 25.319,14.669006 38,21.949036c3.998993,2.294983 10.148987,7.688965 15,6.925964c7.625,-1.197998 16.270996,-9.065979 23,-12.769958c20.218994,-11.131042 40.138,-22.950012 60,-34.703003c62.229004,-36.820007 125.195007,-72.600037 188,-108.453003c20.718994,-11.827026 41.103027,-24.341003 62,-35.843994c5.385986,-2.965027 10.664001,-6.103027 16,-9.156006c2.447021,-1.399048 6.129028,-2.832031 7.396973,-5.540039c2.456055,-5.245972 0.603027,-14.877991 0.603027,-20.609985l0,-48l0,-172l0,-127l0,-33c0,-3.744995 1.20697,-10.128006 -1.028015,-13.365997c-2.755005,-3.992004 -9.883972,-6.400009 -13.971985,-8.835007c-11.567017,-6.886993 -23.317993,-13.522995 -35,-20.220001c-40.737,-23.354996 -81.221985,-47.149994 -122,-70.429001c-45.447021,-25.943993 -90.979004,-51.867294 -136,-78.546593c-11.912994,-7.0597 -23.992004,-13.8601 -36,-20.753101c-3.988007,-2.289299 -10.165985,-7.517101 -15,-6.876499z" fill="#ffffff" id="svg_2"/>
  <path d="m449,58.862701c-3.22699,0.4646 -6.264008,2.915897 -9,4.533897c-5.298004,3.132599 -10.717987,6.036598 -16,9.203705c-17.152008,10.285294 -34.651001,20.032394 -52,29.978699c-60.769012,34.838997 -121.845993,69.342003 -182,105.219994c-19.490997,11.626007 -39.492004,22.389008 -59,34c-5.510002,3.279999 -17.738998,7.242004 -20.397003,13.411011c-2.269997,5.270004 -0.602997,14.113998 -0.602997,19.789993l0,47l0,162l0,117l0,31c0,3.934998 -1.147003,10.140991 1.028,13.620972c2.773003,4.437012 10.553001,7.142029 14.972,9.660034c11.031006,6.284973 21.878006,12.901978 33,19.025024c37.391998,20.582947 74.078995,42.690979 111,64.117981c44.282013,25.700989 88.498993,51.541992 133,76.856995c11.367004,6.466003 22.660004,13.059021 34,19.56897c3.919006,2.25 9.194,6.979004 14,6.287048c3.22699,-0.46405 6.264008,-2.916016 9,-4.533997c4.959991,-2.932007 10.029999,-5.673035 15,-8.592041c16.942993,-9.950989 33.95401,-19.810974 51,-29.583984c61.414978,-35.208984 123.200989,-69.963013 184,-106.226013c19.491028,-11.625977 39.497986,-22.386963 59,-34c5.427979,-3.232971 17.796021,-7.375 20.396973,-13.411011c2.27002,-5.269958 0.603027,-14.112976 0.603027,-19.789978l0,-47l0,-162l0,-117l0,-31c0,-3.934998 1.146973,-10.140991 -1.028015,-13.621002c-2.77301,-4.436996 -10.552979,-7.141998 -14.971985,-9.660004c-11.031982,-6.285995 -21.909973,-12.845001 -33,-19.028c-37.291016,-20.791 -74.062988,-42.677994 -111,-64.11499c-44.281006,-25.699997 -88.521973,-51.500008 -133,-76.856903c-11.363007,-6.477898 -22.595001,-13.177498 -34,-19.5802c-3.955994,-2.221001 -9.17099,-6.971401 -14,-6.276199z" fill="#000000" id="svg_3"/>
  <path d="m449,153c-12.989014,33.479004 -30.746002,65.360001 -45.69101,98c-38.862976,84.875 -78.217987,169.588989 -118.089996,254c-13.335999,28.232971 -25.875,56.888977 -39.47699,85c-5.457001,11.276978 -10.546005,22.72699 -16,34c-3.762009,7.77301 -8.347,15.687012 -10.742004,24c4.233994,1.737 13.065002,7.859985 17.610001,6.291992c2.710007,-0.935974 3.983002,-4.976013 5.143005,-7.291992c3.284988,-6.554993 6.123993,-13.304993 9.107986,-20c11.320007,-25.401001 22.843994,-51.21698 35.447998,-76c12.14801,-23.887024 22.81601,-48.644989 34,-73c23.334015,-50.817993 47.664001,-101.178986 71,-152c11.812012,-25.725006 23.619995,-51.519012 35.949005,-77c7.412994,-15.319 17.029999,-31.643997 21.742004,-48l2,0c2.825989,9.809998 8.634003,18.662003 12.664001,28c10.630005,24.636002 22.824005,48.600006 34.027008,73c37.429962,81.515991 76.197968,162.424011 113.486969,244c11.166016,24.427002 22.924011,48.593994 34.131042,73c5.528992,12.041016 13.020996,24.258972 16.690979,37c6.552979,-1.888 12.684021,-5.408997 19,-8c-3.976013,-13.807007 -12.093018,-27.030029 -18.218994,-40c-12.075989,-25.565002 -24.487976,-51.14502 -35.919006,-77c-41.60199,-94.095001 -87.237,-186.484009 -130.17099,-280c-14.973999,-32.615997 -32.706024,-64.531998 -45.69101,-98l-2,0m-3,77c-2.024994,7.029999 -6.195007,13.263 -9,20l26,0c-2.804993,-6.737 -6.975006,-12.970001 -9,-20l-8,0m-194,171l-68,0l0,20l91,0l26,0c3.529999,0 8.47699,0.859985 11.774994,-0.602997c4.945007,-2.192993 8.806,-14.470001 10.225006,-19.397003l-51,0c3.091003,-12.548004 5.648987,-24.89801 10.450012,-37c10.139984,-25.55899 26.865997,-49.570007 47.549988,-67.713989c10.425995,-9.14502 21.644989,-17.649017 34,-24.028015c4.622986,-2.385986 9.222992,-4.970001 14,-7.029999c3.325989,-1.43399 7.683014,-2.358002 10.351013,-4.927002c2.233978,-2.151001 3.135986,-5.563995 4.429993,-8.300995c2.502991,-5.296005 5.59198,-10.352997 7.218994,-16c-58.338013,13.496994 -109.733002,58.389008 -133.281006,113c-6.92099,16.052002 -13.959,34.339996 -14.718994,52m248,-165c2.390991,7.022003 6.134003,18.300003 11.417999,23.582001c2.759003,2.756989 7.102997,3.740997 10.582001,5.279999c5.421997,2.397003 10.758972,5.151001 16,7.919006c12.833984,6.776001 24.166016,15.953003 35,25.505005c30.968994,27.302002 46.392029,63.714996 56,102.713989l-52,0c1.960999,5.053009 5.049011,17.007996 10.275024,19.397003c3.005981,1.373993 7.500977,0.602997 10.724976,0.602997l25,0l87,0l0,-20l-61,0c-0.783997,-18.220001 -8.284973,-37.562988 -15.69397,-54c-24.462036,-54.260986 -74.96405,-97.625 -133.30603,-111m-142,185l184,0c-1.505981,-5.506012 -4.926025,-17.963989 -11.10498,-19.682007c-3.619019,-1.005981 -8.166016,-0.317993 -11.89502,-0.317993l-23,0l-77,0l-34,0c-4.921997,0 -11.130005,-1.006989 -15.894989,0.317993c-5.830017,1.621002 -9.587006,14.414001 -11.105011,19.682007m-174,15l0,19l67,0c1.697998,21.519012 10.188995,40.865997 17,61l2,0c2.946014,-7.085999 8.954987,-15.348999 9.747009,-23c0.487976,-4.716003 -2.149017,-9.571991 -3.453003,-14c-2.308014,-7.835999 -3.942993,-15.821991 -4.294006,-24l17,0c2.691986,-0.001007 6.223999,0.509003 8.605988,-1.028015c4.484009,-2.889984 7.381012,-13.13797 9.394012,-17.971985l-123,0m158,19l216,0c-1.375977,-4.778015 -4.502991,-15.010986 -8.648987,-17.971985c-2.617004,-1.870026 -7.322021,-1.028015 -10.351013,-1.028015l-27,0l-123,0l-27,0c-3.252991,0 -8.54599,-0.975006 -11.351013,1.028015c-4.145996,2.960999 -7.27298,13.19397 -8.648987,17.971985m251,-19c2.013,4.834015 4.909973,15.082001 9.393982,17.971985c2.382019,1.537018 5.914001,1.027008 8.606018,1.028015l18,0c-0.357971,8.307007 -2.210022,17.048004 -4.588989,25c-1.296021,4.32901 -4.27301,9.393005 -3.835999,14c0.73999,7.799011 7.407959,16.744995 10.424988,24c2.869019,-3.794006 4.268982,-8.665985 6.22998,-13c6.882996,-15.209015 11.457031,-33.367004 12.77002,-50l60,0l0,-19l-117,0m-290,101c-2.119995,5.16803 -8.84201,14.458984 -8.006012,20c0.791016,5.242981 8.437012,11.390015 12.01001,15c12.877991,13.012024 27.872009,24.924011 43.996002,33.690979c60.278992,32.776001 131.799011,34.887024 193,3.087036c17.572021,-9.131042 33.822998,-20.940002 48,-34.79303c4.047974,-3.954956 11.955994,-10.205994 13.184021,-15.984985c1.165955,-5.481995 -5.528015,-15.333984 -8.184021,-20c-9.705017,7.143982 -17.073975,18.598999 -26,26.911011c-14.343994,13.356018 -31.241028,23.648987 -49,31.779968c-58.356995,26.721008 -129.359009,16.460022 -180,-21.820984c-13.64801,-10.317017 -27.868011,-23.268005 -37,-37.869995l-2,0z" fill="#ffffff" id="svg_4"/>
 </g>
</svg>